<?xml version="1.0" encoding="UTF-8" standalone="no"?>
<!-- Created with Inkscape (http://www.inkscape.org/) -->
<svg style="enable-background:new" xmlns="http://www.w3.org/2000/svg" height="512" viewBox="0 0 512.40002 512" width="512.4" version="1.1" xmlns:xlink="http://www.w3.org/1999/xlink">
  <defs
     id="defs3">
    <linearGradient
       id="linearGradient3045">
      <stop
         style="stop-color:#847784;stop-opacity:0.99607843"
         offset="0"
         id="stop3047" />
      <stop
         style="stop-color:#695f69;stop-opacity:1"
         offset="1"
         id="stop3049" />
    </linearGradient>
    <linearGradient
       id="linearGradient4213">
      <stop
         id="stop4215"
         offset="0"
         style="stop-color:#b1d7f3;stop-opacity:1" />
      <stop
         id="stop4217"
         offset="1"
         style="stop-color:#8fafda;stop-opacity:1" />
    </linearGradient>
    <linearGradient
       id="linearGradient5460"
       inkscape:swatch="gradient">
      <stop
         style="stop-color:#e6e6e6;stop-opacity:1"
         offset="0"
         id="stop5462" />
      <stop
         style="stop-color:#ffffff;stop-opacity:1"
         offset="1"
         id="stop5464" />
    </linearGradient>
    <linearGradient
       id="linearGradient5476"
       inkscape:swatch="solid">
      <stop
         style="stop-color:#772953;stop-opacity:1;"
         offset="0"
         id="stop5478" />
    </linearGradient>
    <filter
       color-interpolation-filters="sRGB"
       id="filter4154">
      <feComposite
         id="feComposite4156"
         in2="SourceGraphic"
         k3="0"
         k2="1"
         k1="0"
         result="composite1"
         k4="0"
         operator="arithmetic" />
      <feColorMatrix
         id="feColorMatrix4158"
         type="saturate"
         values="0"
         result="colormatrix1"
         in="composite1" />
      <feFlood
         id="feFlood4160"
         result="flood1"
         flood-color="rgb(72,59,72)" />
      <feBlend
         id="feBlend4162"
         result="blend1"
         mode="multiply"
         in2="colormatrix1"
         in="flood1" />
      <feBlend
         id="feBlend4164"
         mode="screen"
         in2="blend1"
         result="blend2" />
      <feColorMatrix
         id="feColorMatrix4166"
         type="saturate"
         values="1"
         result="colormatrix2"
         in="blend2" />
      <feComposite
         id="feComposite4168"
         operator="in"
         result="composite2"
         in2="SourceGraphic"
         in="colormatrix2" />
    </filter>
    <clipPath
       clipPathUnits="userSpaceOnUse"
       id="clipPath3062">
      <rect
         style="color:#000000;fill:url(#linearGradient3066);fill-opacity:1;fill-rule:nonzero;stroke:none;stroke-width:40;marker:none;visibility:visible;display:inline;overflow:visible;enable-background:new"
         id="rect3064"
         width="475.66452"
         height="445.93549"
         x="34.167744"
         y="-194.96773" />
    </clipPath>
    <linearGradient
       inkscape:collect="always"
       xlink:href="#linearGradient3045"
       id="linearGradient3066"
       gradientUnits="userSpaceOnUse"
       gradientTransform="matrix(1.8580645,0,0,1.8736786,4.4387126,-288.65166)"
       x1="256"
       y1="50"
       x2="256"
       y2="288" />
  </defs>
  <metadata
     id="metadata4">
    <rdf:RDF>
      <cc:Work
         rdf:about="">
        <dc:format>image/svg+xml</dc:format>
        <dc:type
           rdf:resource="http://purl.org/dc/dcmitype/StillImage" />
        <dc:creator>
          <cc:Agent>
            <dc:title />
          </cc:Agent>
        </dc:creator>
        <dc:source />
        <cc:license
           rdf:resource="" />
        <dc:title>Template</dc:title>
        <dc:subject>
          <rdf:Bag />
        </dc:subject>
        <dc:date />
        <dc:rights>
          <cc:Agent>
            <dc:title />
          </cc:Agent>
        </dc:rights>
        <dc:publisher>
          <cc:Agent>
            <dc:title />
          </cc:Agent>
        </dc:publisher>
        <dc:identifier />
        <dc:relation />
        <dc:language />
        <dc:coverage />
        <dc:description />
        <dc:contributor>
          <cc:Agent>
            <dc:title />
          </cc:Agent>
        </dc:contributor>
      </cc:Work>
      <cc:Work
         rdf:about="">
        <dc:format>image/svg+xml</dc:format>
        <dc:type
           rdf:resource="http://purl.org/dc/dcmitype/StillImage" />
      </cc:Work>
    </rdf:RDF>
  </metadata>
  <g
     inkscape:groupmode="layer"
     id="layer5"
     inkscape:label="background"
     style="display:inline">
    <rect
       style="fill:#8adc8d;fill-opacity:1"
       id="rect2215"
       width="512"
       height="512"
       x="0"
       y="0" />
    <path
       id="path12492"
       style="fill:#8adc01;fill-opacity:0.292663"
       inkscape:transform-center-x="45.122383"
       inkscape:transform-center-y="-20.030334"
       d="M 80.626106,512 512,118.17662 V 512 Z"
       sodipodi:nodetypes="cccc" />
  </g>
  <g
     id="logo/rd4"
     style="fill:none;fill-rule:evenodd;stroke:none;stroke-width:1"
     transform="matrix(3.7944951,0,0,3.7944951,79.999981,153.02795)">
    <path
       d="m 61.82743,41.292593 h 15.107512 l -3.545263,12.707534 7.579017,-0.07733 3.804633,-12.631151 6.159239,9.51e-4 c 0,0 1.866114,-0.420584 1.832969,-2.311786 -0.0296,-1.675363 -1.69009,-1.623385 -1.69009,-1.623385 h -5.542349 l 6.2561,-22.026307 c 0.0856,-0.32138 0.34336,-1.556826 -0.859526,-1.979946 -1.202564,-0.423119 -2.027657,0.336911 -2.027657,0.336911 l -23.966004,21.93534 -4.077841,3.366891 c 0,0 -0.813187,0.585078 -0.578917,1.570456 0.171198,0.718511 1.179395,0.710904 1.548177,0.731822 m 6.339124,-4.428652 c 0.04666,-0.318211 0.42735,-0.647832 0.42735,-0.647832 l 12.99329,-12.271736 c 0.626866,-0.23232 0.608579,0.490628 0.608579,0.490628 l -4.302835,12.979471 -9.117218,0.06878 c -0.378436,-0.02853 -0.656792,-0.291905 -0.609166,-0.619308"
       id="Fill-1"
       fill="#3975bc" />
    <path
       d="m 55.476842,2.5239258 c 0,0 -1.020129,0.1043168 -0.682469,1.3286842 0.0832,0.3008281 1.034753,0.3987648 1.357789,0.3987648 0.688644,0 0.884935,0.013398 1.299292,0.352827 0.413381,0.3419807 0.545975,1.0230709 0.545975,1.5038217 0,0.8023147 -0.06305,1.3245371 -0.705218,3.1677873 l -1.804644,4.8384522 c -1.236895,-0.110378 -1.591779,-0.185027 -2.432191,-0.199063 -0.709119,-0.01212 -1.465685,0.0038 -2.262874,0.09794 -1.612253,0.189812 -2.972642,0.699912 -4.534522,1.600483 -1.557005,0.897699 -3.257654,2.255413 -5.037924,4.138859 -1.781245,1.884084 -3.092562,4.069953 -4.450026,6.885232 -1.359089,2.814322 -1.973311,5.519223 -2.193651,8.284418 -0.126745,1.592188 0.08547,4.319101 1.142323,5.502953 1.055553,1.182258 2.410742,1.738615 3.930699,1.495528 1.401338,-0.224584 3.319402,-1.17205 4.585545,-2.527531 1.858592,-1.988719 3.580039,-3.40896 6.440886,-7.670958 l -0.643146,3.144819 c -0.355534,1.79157 -0.396157,2.730103 -0.415006,3.377697 -0.02437,0.86197 0.107895,1.858563 0.561575,2.754986 0.404281,0.798805 1.606078,1.349739 2.537811,1.317519 3.553716,-0.123458 6.928039,-2.707773 9.602345,-7.367578 0,0 1.250219,-2.046142 1.250219,-2.817513 0,-0.77137 -0.393558,-0.871859 -0.607398,-0.911735 -0.249914,-0.04689 -0.583349,0.210228 -0.630797,0.280411 -0.04777,0.07018 -0.484878,0.58762 -0.616497,0.83294 -0.864462,1.619623 -2.000611,3.525718 -2.611258,4.287519 -0.404282,0.504676 -0.648671,0.579963 -0.992831,0.579963 -0.182642,0 -0.489753,-0.114525 -0.562225,-0.326668 -0.153068,-0.451402 -0.09717,-0.89419 -0.0507,-1.103462 0.127394,-0.577092 1.608353,-7.696798 2.56121,-10.596296 L 66.90593,1.9245026 c 0,0 0.531351,-1.40301399 -0.611947,-1.58995491 0,0 0.01527,-0.3429377 -1.57228,0.60771751 0,0 -2.388968,1.6569474 -6.093477,1.5213673 0,0 -2.428941,-0.1808796 -3.151384,0.060293 M 51.094738,27.020205 c -1.972336,3.553473 -2.523186,4.378437 -4.00642,6.265392 -0.270713,0.344852 -1.767271,1.974364 -2.102331,2.242972 -0.33896,0.272117 -1.262568,0.521903 -1.614852,0.07529 -0.352935,-0.445659 -0.289562,-1.221496 -0.213841,-2.309646 0.178417,-2.554327 1.303192,-5.571541 3.047389,-9.264741 1.796844,-3.804216 3.020089,-5.605356 4.615768,-7.297714 0.683444,-0.724795 1.478359,-1.196613 2.209576,-1.269986 0.658745,-0.06604 1.374038,0.06316 1.559605,0.771051 0.145918,0.55859 0.145918,1.336341 -0.01235,2.143441 -0.426381,2.171194 -1.547906,5.158421 -3.482545,8.643944"
       id="Fill-6"
       fill="#0a366a" />
    <path
       d="m 10.081013,6.1910397 c -0.2262469,1.0086022 0.779932,1.2108227 2.673597,1.6859002 0.826072,0.2072214 0.92949,0.7151168 0.878894,1.3980408 -0.05282,0.7079281 -0.245975,1.3292793 -0.439447,2.0540853 L 6.0362516,35.014183 c -0.692424,2.387578 -1.3406168,3.715294 -2.1701891,4.401344 -0.829254,0.687925 -3.97061865,0.483829 -3.86338203,1.737158 0,0 0.04582217,0.435384 0.48145103,0.420694 l 17.0067085,0.0225 c 0.405081,-0.02969 0.481452,-0.375687 0.481452,-0.375687 0.160695,-1.30615 -1.849753,-1.028292 -2.793244,-1.587134 -0.603962,-0.358496 -0.699743,-0.934215 -0.684468,-1.693401 0.01496,-0.75106 0.05091,-1.350846 0.524727,-2.923603 l 2.786879,-8.406685 c 0,0 0.110737,-0.418193 1.072685,-0.389438 0.827663,0.02438 0.956219,0.114394 1.189467,0.446635 l 4.046989,14.990573 10.849672,-0.06126 c 0.448994,-0.02907 0.559731,-0.36631 0.559731,-0.36631 0.539683,-1.641205 -1.375938,-1.213948 -2.302882,-1.815296 -0.763067,-0.495081 -1.045637,-2.314441 -1.937897,-5.306492 L 28.200819,23.848298 c 3.294105,-0.902335 6.499112,-2.947669 7.796134,-4.186934 2.052452,-1.982199 3.078677,-4.203186 3.078677,-6.664526 0,-2.336006 -0.895123,-4.2472556 -2.683461,-5.7334357 C 34.60224,5.7769096 30.016523,5.4001411 25.617594,5.4001411 H 11.577553 c -1.322479,-0.012358 -1.49654,0.7908986 -1.49654,0.7908986 z m 13.50895,1.0701747 c 0.492588,-0.016878 0.921216,-0.026879 1.285566,-0.026879 1.495267,0 2.855613,0.4375715 3.76792,1.3230285 0.911033,0.8863948 1.307204,2.3444451 1.123597,4.0340961 -0.34653,3.185832 -1.139826,5.253045 -2.937074,7.208677 -2.002174,2.179418 -3.335154,3.164579 -5.793323,3.9844 -0.408262,0.13596 -1.760971,0.306613 -2.389435,0.270669 z"
       id="Fill-4"
       fill="#0a366a" />
  </g>
</svg>
